<?xml version="1.0" encoding="UTF-8"?><svg width="512" height="512" version="1.1" viewBox="0 0 512 512" xmlns="http://www.w3.org/2000/svg" xmlns:xlink="http://www.w3.org/1999/xlink"><!--Generated by IJSVG (https://github.com/iconjar/IJSVG)--><g transform="scale(8)"><path fill="#000" d="M56,22h-8.764l-5.447,-10.895c-0.493,-0.987 -1.693,-1.39 -2.684,-0.895c-0.988,0.494 -1.389,1.695 -0.895,2.684l4.554,9.106h-21.528l4.553,-9.105c0.494,-0.988 0.093,-2.189 -0.895,-2.684c-0.987,-0.494 -2.189,-0.094 -2.684,0.895l-5.446,10.894h-8.764c-1.104,0 -2,0.896 -2,2c0,1.104 0.896,2 2,2h2.265l3.755,26.283c0.141,0.986 0.985,1.717 1.98,1.717h32c0.995,0 1.839,-0.731 1.979,-1.717l3.755,-26.283h2.266c1.104,0 2,-0.896 2,-2c0,-1.104 -0.896,-2 -2,-2Zm-9.734,28h-28.532l-3.428,-24h35.388l-3.428,24Z"></path><path fill="#000" d="M21.984,29.752c-0.137,-1.096 -1.138,-1.873 -2.232,-1.736c-1.096,0.137 -1.874,1.136 -1.736,2.232l2,16c0.126,1.012 0.987,1.752 1.982,1.752c0.083,0 0.167,-0.005 0.25,-0.016c1.096,-0.137 1.874,-1.137 1.736,-2.232l-2,-16Z"></path><path fill="#000" d="M44.248,28.016c-1.09,-0.139 -2.096,0.64 -2.232,1.736l-2,16c-0.137,1.096 0.641,2.096 1.736,2.232c0.084,0.011 0.168,0.016 0.251,0.016c0.993,0 1.855,-0.74 1.981,-1.752l2,-16c0.137,-1.096 -0.64,-2.096 -1.736,-2.232Z"></path><path fill="#000" d="M36,28c-1.104,0 -2,0.896 -2,2v16c0,1.104 0.896,2 2,2c1.104,0 2,-0.896 2,-2v-16c0,-1.104 -0.896,-2 -2,-2Z"></path><path fill="#000" d="M28,28c-1.104,0 -2,0.896 -2,2v16c0,1.104 0.896,2 2,2c1.104,0 2,-0.896 2,-2v-16c0,-1.104 -0.896,-2 -2,-2Z"></path></g></svg>